name rise43.5482peak65.4966fall89.1036.mot
datacolumns 19
datarows 20
range 8.06331900000000 8.09496900000000
endheader
time	ground_force1_vx	ground_force1_vy	ground_force1_vz	ground_force1_px	ground_force1_py	ground_force1_pz	ground_force2_vx	ground_force2_vy	ground_force2_vz	ground_force2_px	ground_force2_py	ground_force2_pz	ground_torque1_x	ground_torque1_y	ground_torque1_z	ground_torque2_x	ground_torque2_y	ground_torque2_z	
8.06331900000000	-44.45989500000000	813.97663899999998	54.78330700000000	0.07830300000000	0.00000000000000	0.10452700000000	-8.70257200000000	31.82583700000000	4.80642200000000	0.31343500000000	0.00000000000000	-0.07016100000000	0.00000000000000	16.60399900000000	0.00000000000000	0.00000000000000	1.97260800000000	0.00000000000000	
8.06496500000000	-44.78518800000000	811.98444300000006	54.65185500000000	0.07766400000000	0.00000000000000	0.10447200000000	-9.96804300000000	37.81617000000000	5.58279300000000	0.31673400000000	0.00000000000000	-0.07051700000000	0.00000000000000	16.53959600000000	0.00000000000000	0.00000000000000	2.32785700000000	0.00000000000000	
8.06663200000000	-45.12231600000000	809.85000000000002	54.49761000000000	0.07702700000000	0.00000000000000	0.10441400000000	-11.13543500000000	43.87230500000000	6.32757200000000	0.31976600000000	0.00000000000000	-0.07084200000000	0.00000000000000	16.47588300000000	0.00000000000000	0.00000000000000	2.67928800000000	0.00000000000000	
8.06830200000000	-45.47185500000000	807.57321100000001	54.32018400000000	0.07639400000000	0.00000000000000	0.10435300000000	-12.16975000000000	49.88815800000000	7.02195200000000	0.32256500000000	0.00000000000000	-0.07114200000000	0.00000000000000	16.41305300000000	0.00000000000000	0.00000000000000	3.01871800000000	0.00000000000000	
8.06996600000000	-45.83432600000000	805.15403900000001	54.11923000000000	0.07576300000000	0.00000000000000	0.10428700000000	-13.04449700000000	55.77775300000000	7.65109900000000	0.32515900000000	0.00000000000000	-0.07142000000000	0.00000000000000	16.35128800000000	0.00000000000000	0.00000000000000	3.33934800000000	0.00000000000000	
8.07162800000000	-46.21019400000000	802.59249999999997	53.89444600000000	0.07513500000000	0.00000000000000	0.10421800000000	-13.74263900000000	61.47937300000000	8.20474300000000	0.32757100000000	0.00000000000000	-0.07168100000000	0.00000000000000	16.29076000000000	0.00000000000000	0.00000000000000	3.63608000000000	0.00000000000000	
8.07331100000000	-46.59986400000000	799.88865799999996	53.64557400000000	0.07450900000000	0.00000000000000	0.10414400000000	-14.25662500000000	66.95707400000001	8.67729200000000	0.32982100000000	0.00000000000000	-0.07192600000000	0.00000000000000	16.23163100000000	0.00000000000000	0.00000000000000	3.90563900000000	0.00000000000000	
8.07496400000000	-47.00367500000000	797.04261499999996	53.37240100000000	0.07388700000000	0.00000000000000	0.10406600000000	-14.58764800000000	72.19983700000000	9.06755200000000	0.33192400000000	0.00000000000000	-0.07215800000000	0.00000000000000	16.17405300000000	0.00000000000000	0.00000000000000	4.14653200000000	0.00000000000000	
8.07663100000000	-47.42189600000000	794.05450399999995	53.07476100000000	0.07326700000000	0.00000000000000	0.10398500000000	-14.74429600000000	77.21881600000000	9.37813200000000	0.33389400000000	0.00000000000000	-0.07237900000000	0.00000000000000	16.11816200000000	0.00000000000000	0.00000000000000	4.35886000000000	0.00000000000000	
8.07831300000000	-47.85472800000000	790.92448600000000	52.75253400000000	0.07265100000000	0.00000000000000	0.10389900000000	-14.74084800000000	82.04323200000000	9.61463800000000	0.33574500000000	0.00000000000000	-0.07259100000000	0.00000000000000	16.06408300000000	0.00000000000000	0.00000000000000	4.54403600000000	0.00000000000000	
8.07997000000000	-48.30229500000000	787.65273900000000	52.40564800000000	0.07203700000000	0.00000000000000	0.10380900000000	-14.59537700000000	86.71550300000000	9.78476000000000	0.33748500000000	0.00000000000000	-0.07279500000000	0.00000000000000	16.01192700000000	0.00000000000000	0.00000000000000	4.70443800000000	0.00000000000000	
8.08162900000000	-48.76464100000000	784.23945400000002	52.03407800000000	0.07142500000000	0.00000000000000	0.10371500000000	-14.32789000000000	91.28612900000000	9.89735400000000	0.33912300000000	0.00000000000000	-0.07299200000000	0.00000000000000	15.96178800000000	0.00000000000000	0.00000000000000	4.84305200000000	0.00000000000000	
8.08331100000000	-49.24173300000000	780.68483200000003	51.63784800000000	0.07081700000000	0.00000000000000	0.10361700000000	-13.95861100000000	95.80880500000001	9.96158100000000	0.34066800000000	0.00000000000000	-0.07318400000000	0.00000000000000	15.91374700000000	0.00000000000000	0.00000000000000	4.96311300000000	0.00000000000000	
8.08496700000000	-49.73344900000000	776.98907699999995	51.21702900000000	0.07021100000000	0.00000000000000	0.10351400000000	-13.50655700000000	100.33610700000000	9.98616900000000	0.34212500000000	0.00000000000000	-0.07337200000000	0.00000000000000	15.86786600000000	0.00000000000000	0.00000000000000	5.06780000000000	0.00000000000000	
8.08663400000000	-50.23958400000000	773.15238999999997	50.77174200000000	0.06960700000000	0.00000000000000	0.10340700000000	-12.98843800000000	104.91598300000000	9.97884100000000	0.34350100000000	0.00000000000000	-0.07355500000000	0.00000000000000	15.82419300000000	0.00000000000000	0.00000000000000	5.15998400000000	0.00000000000000	
8.08829700000000	-50.75984200000000	769.17497000000003	50.30215300000000	0.06900500000000	0.00000000000000	0.10329700000000	-12.41792400000000	109.58919700000000	9.94591600000000	0.34480000000000	0.00000000000000	-0.07373600000000	0.00000000000000	15.78275500000000	0.00000000000000	0.00000000000000	5.24204100000000	0.00000000000000	
8.08996200000000	-51.29383600000000	765.05700800000000	49.80847900000000	0.06840600000000	0.00000000000000	0.10318100000000	-11.80527500000000	114.38773300000000	9.89207900000000	0.34602600000000	0.00000000000000	-0.07391300000000	0.00000000000000	15.74356500000000	0.00000000000000	0.00000000000000	5.31573900000000	0.00000000000000	
8.09163400000000	-51.84108600000000	760.79868399999998	49.29098300000000	0.06780800000000	0.00000000000000	0.10306200000000	-11.15728500000000	119.33412300000001	9.82032700000000	0.34718300000000	0.00000000000000	-0.07408800000000	0.00000000000000	15.70661500000000	0.00000000000000	0.00000000000000	5.38219000000000	0.00000000000000	
8.09330000000000	-52.40101600000000	756.40016800000001	48.74997500000000	0.06721200000000	0.00000000000000	0.10293900000000	-10.47749100000000	124.44157400000000	9.73203800000000	0.34827500000000	0.00000000000000	-0.07426100000000	0.00000000000000	15.67187800000000	0.00000000000000	0.00000000000000	5.44186500000000	0.00000000000000	
8.09496900000000	-52.97295600000000	751.86161400000003	48.18581200000000	0.06661700000000	0.00000000000000	0.10281100000000	-9.76659300000000	129.71474100000000	9.62715800000000	0.34930300000000	0.00000000000000	-0.07443300000000	0.00000000000000	15.63931000000000	0.00000000000000	0.00000000000000	5.49465100000000	0.00000000000000	
